<svg width="18" height="25" viewBox="0 0 18 25" fill="none" xmlns="http://www.w3.org/2000/svg">
<path fill-rule="evenodd" clip-rule="evenodd" d="M8.96021 0.929688C4.43505 0.929688 0.527344 4.84245 0.527344 9.51049C0.527344 12.2861 1.2597 13.4665 4.56692 18.7966C5.29694 19.9731 6.15241 21.3519 7.15316 22.9946C8.26315 24.5636 10.2606 24.562 11.3696 22.9946C12.3704 21.3518 13.2259 19.973 13.9559 18.7964C17.2649 13.4632 17.9954 12.2859 17.9954 9.51049C17.9954 4.8374 14.0827 0.929688 8.96021 0.929688ZM9.56332 22.3832C8.35857 20.4657 7.36916 18.9173 6.55748 17.647C3.41897 12.7354 2.9375 11.982 2.9375 10.1249C2.9375 6.32746 5.90398 3.38281 9.56332 3.38281C13.2227 3.38281 16.1891 6.32746 16.1891 10.1249C16.1891 11.977 15.7469 12.6694 12.5763 17.6342L12.5763 17.6342C11.7639 18.9063 10.7724 20.4588 9.56332 22.3832ZM8.96369 5.83203C6.96768 5.83203 5.34961 7.47849 5.34961 9.50952C5.34961 11.5406 6.96768 13.187 8.96369 13.187C10.9597 13.187 12.5778 11.5406 12.5778 9.50952C12.5778 7.47849 10.9597 5.83203 8.96369 5.83203Z" fill="#262626"/>
<path fill-rule="evenodd" clip-rule="evenodd" d="M8.96021 0.929688C4.43505 0.929688 0.527344 4.84245 0.527344 9.51049C0.527344 12.2861 1.2597 13.4665 4.56692 18.7966C5.29694 19.9731 6.15241 21.3519 7.15316 22.9946C8.26315 24.5636 10.2606 24.562 11.3696 22.9946C12.3704 21.3518 13.2259 19.973 13.9559 18.7964C17.2649 13.4632 17.9954 12.2859 17.9954 9.51049C17.9954 4.8374 14.0827 0.929688 8.96021 0.929688ZM9.56332 22.3832C8.35857 20.4657 7.36916 18.9173 6.55748 17.647C3.41897 12.7354 2.9375 11.982 2.9375 10.1249C2.9375 6.32746 5.90398 3.38281 9.56332 3.38281C13.2227 3.38281 16.1891 6.32746 16.1891 10.1249C16.1891 11.977 15.7469 12.6694 12.5763 17.6342L12.5763 17.6342C11.7639 18.9063 10.7724 20.4588 9.56332 22.3832ZM8.96369 5.83203C6.96768 5.83203 5.34961 7.47849 5.34961 9.50952C5.34961 11.5406 6.96768 13.187 8.96369 13.187C10.9597 13.187 12.5778 11.5406 12.5778 9.50952C12.5778 7.47849 10.9597 5.83203 8.96369 5.83203Z" fill="#FFECD8"/>
<path fill-rule="evenodd" clip-rule="evenodd" d="M8.96021 0.929688C4.43505 0.929688 0.527344 4.84245 0.527344 9.51049C0.527344 12.2861 1.2597 13.4665 4.56692 18.7966C5.29694 19.9731 6.15241 21.3519 7.15316 22.9946C8.26315 24.5636 10.2606 24.562 11.3696 22.9946C12.3704 21.3518 13.2259 19.973 13.9559 18.7964C17.2649 13.4632 17.9954 12.2859 17.9954 9.51049C17.9954 4.8374 14.0827 0.929688 8.96021 0.929688ZM9.56332 22.3832C8.35857 20.4657 7.36916 18.9173 6.55748 17.647C3.41897 12.7354 2.9375 11.982 2.9375 10.1249C2.9375 6.32746 5.90398 3.38281 9.56332 3.38281C13.2227 3.38281 16.1891 6.32746 16.1891 10.1249C16.1891 11.977 15.7469 12.6694 12.5763 17.6342L12.5763 17.6342C11.7639 18.9063 10.7724 20.4588 9.56332 22.3832ZM8.96369 5.83203C6.96768 5.83203 5.34961 7.47849 5.34961 9.50952C5.34961 11.5406 6.96768 13.187 8.96369 13.187C10.9597 13.187 12.5778 11.5406 12.5778 9.50952C12.5778 7.47849 10.9597 5.83203 8.96369 5.83203Z" fill="#FFC98E"/>
</svg>
