<svg width="18" height="24" viewBox="0 0 18 24" fill="none" xmlns="http://www.w3.org/2000/svg">
<path fill-rule="evenodd" clip-rule="evenodd" d="M8.43287 0C3.90771 0 0 3.91276 0 8.5808C0 11.3564 0.732356 12.5368 4.03958 17.8669C4.7696 19.0434 5.62507 20.4222 6.62582 22.0649C7.73581 23.6339 9.73326 23.6323 10.8423 22.0649C11.8431 20.4221 12.6986 19.0433 13.4286 17.8667C16.7376 12.5335 17.4681 11.3562 17.4681 8.5808C17.4681 3.90771 13.5554 0 8.43287 0ZM9.03598 21.4535C7.83123 19.536 6.84182 17.9876 6.03014 16.7173C2.89163 11.8057 2.41016 11.0523 2.41016 9.19521C2.41016 5.39777 5.37664 2.45312 9.03598 2.45312C12.6954 2.45312 15.6618 5.39777 15.6618 9.19521C15.6618 11.0473 15.2196 11.7397 12.049 16.7045C11.2366 17.9766 10.2451 19.5291 9.03598 21.4535ZM8.43635 4.90234C6.44034 4.90234 4.82227 6.5488 4.82227 8.57983C4.82227 10.6109 6.44034 12.2573 8.43635 12.2573C10.4324 12.2573 12.0505 10.6109 12.0505 8.57983C12.0505 6.5488 10.4324 4.90234 8.43635 4.90234Z" fill="white"/>
</svg>
